<svg width="99" height="58" viewBox="0 0 99 58" fill="none" xmlns="http://www.w3.org/2000/svg">
<path d="M27.1952 16.1464C27.9841 14.9705 28.9591 14.3826 30.1201 14.3826C30.6708 14.3826 31.1769 14.5165 31.6383 14.7845L31.1025 18.4461C30.5071 18.0294 29.8373 17.821 29.093 17.821C28.3785 17.821 27.8948 18.1187 27.6417 18.7141C27.4929 19.0862 27.3961 19.4434 27.3515 19.7858L26.9273 25.2783H22.9083L22.2385 14.6952H26.637L27.1952 16.1464Z" fill="black"/>
<path d="M1.13395 25.2784L0.0175781 11.748H8.36801L10.891 18.3793L13.414 11.748H21.0053L19.8889 25.2784H15.3118L14.508 17.2182L11.4269 25.2784H7.80982L4.72865 17.2182L4.05883 25.2784H1.13395Z" fill="black"/>
<path d="M64.8192 43.7933C64.7989 42.9665 64.8192 42.3876 64.8414 41.9326C64.9046 40.7324 65.0635 39.5393 65.3168 38.3645C65.9494 35.2349 65.8255 31.9369 65.7922 31.0694C65.6983 28.9958 65.4241 26.9343 64.9728 24.9082C64.6583 23.3656 64.4012 22.0967 63.7982 20.4357C63.3506 19.1983 62.7772 17.9183 62.0688 16.3424C61.6545 15.4176 61.3752 14.8312 61.3012 14.6777C59.2369 10.1682 62.2926 1.57279 60.0064 0.296519C59.5828 0.0597612 58.8134 -0.0142255 58.3251 0.316865C57.5852 0.818125 57.8534 2.00561 57.0395 2.38849C56.8943 2.45899 56.7352 2.49653 56.5737 2.49845C56.4123 2.50037 56.2524 2.46661 56.1055 2.39959C55.4137 2.02966 55.8336 0.919857 55.1473 0.353858C54.6183 -0.0863626 53.6343 -0.0456699 53.0905 0.377904C52.6447 0.723792 52.7909 1.09742 52.1805 2.44398C51.8531 3.16535 51.6829 3.53159 51.3518 3.81274C50.7507 4.32325 50.1532 4.24371 49.3949 4.38429C48.791 4.50215 48.2182 4.74378 47.7123 5.09395C47.2065 5.44412 46.7786 5.89525 46.4557 6.41892C45.6937 7.6656 45.5309 9.32105 44.3804 10.2292C43.5037 10.9229 42.1608 11.0782 41.6337 12.066C41.2637 12.7503 41.4376 13.4754 41.5042 13.812C42.0276 16.4164 45.555 18.5453 47.6858 17.8351C48.1759 17.6723 48.3979 17.4226 49.1748 17.258C50.0449 17.0613 50.953 17.1152 51.7939 17.4133C53.2422 17.9535 53.9561 19.1298 54.2502 19.6329C54.5443 20.1361 55.0789 21.2052 55.0456 23.7355C55.0197 25.5852 54.7053 26.6154 54.3631 28.3597C53.6232 32.0886 53.3328 37.0235 53.5899 39.2413C53.7416 40.5361 53.9598 41.4738 53.7749 43.0109C53.6805 43.8044 53.4845 45.4284 52.5134 46.9507C51.3056 48.8411 48.8585 50.6352 45.825 50.5816C44.2517 50.534 42.729 50.0152 41.4538 49.0925C40.1786 48.1699 39.2096 46.8857 38.6723 45.4062C37.692 42.6854 38.5299 40.0237 39.5269 38.4792C40.1164 37.589 40.8696 36.8189 41.7465 36.2097C42.466 35.7399 42.8359 35.6918 43.7922 35.2515C44.6597 34.8502 45.9674 34.2472 47.1327 33.1559C48.8825 31.5189 49.4837 29.5583 49.7001 28.8258C49.972 27.901 50.1347 27.3461 50.0478 26.5785C49.9319 25.7118 49.583 24.8929 49.0384 24.2088C48.4938 23.5248 47.7738 23.0013 46.9552 22.6942C46.1299 22.4154 45.2461 22.3574 44.3915 22.5258C39.4437 23.3193 36.9706 23.717 34.5161 25.2578C29.535 28.3837 27.6206 33.2909 26.9695 35.431C26.5829 36.7017 24.1506 45.2342 29.5905 51.8523C30.1158 52.4923 33.6764 56.7114 38.8148 57.3532C41.2711 57.6603 44.8613 57.246 46.2893 57.0795C48.1297 56.8668 47.9151 56.7854 49.0897 56.6726C53.2773 56.2712 56.4495 57.3144 61.2494 57.4661C61.8931 57.4864 63.2248 57.5123 64.4197 56.6818C64.8573 56.3766 65.2337 55.992 65.5295 55.548C66.5487 53.9609 65.7996 52.2186 65.2613 48.6339C65.0234 47.0299 64.8758 45.4139 64.8192 43.7933Z" fill="black"/>
<path d="M24.0081 36.0191C24.5678 34.2607 25.3703 32.5891 26.3923 31.0527C24.9798 30.6091 23.5058 30.3924 22.0253 30.4109H2.1062L4.78637 57.4697H13.4946L14.2567 49.6567H19.7927C21.3536 49.6666 22.9102 49.4915 24.4298 49.1351C21.8533 43.2328 23.6715 37.0826 24.0081 36.0191ZM20.2366 42.689C19.4327 43.5226 18.3463 43.9393 16.9775 43.9393H14.8338L15.5921 35.9858H17.3789C18.5689 35.9858 19.5436 36.291 20.3032 36.9014C21.0628 37.5118 21.4426 38.4199 21.4426 39.6259C21.456 40.1911 21.3562 40.7532 21.1491 41.2793C20.942 41.8053 20.6317 42.2846 20.2366 42.689Z" fill="black"/>
<path d="M91.4526 36.3132C91.4526 39.8263 91.021 42.7735 90.1578 45.1546C89.3526 47.2694 88.519 48.7577 87.657 49.6197L85.9147 36.3132H74.8851L76.6275 41.5366C76.3538 43.1282 75.8886 44.6809 75.2421 46.1608C74.6181 47.5752 74.1569 48.468 73.8585 48.8391C73.6351 49.127 73.3968 49.403 73.1446 49.6659L71.2264 36.3132H68.7812C68.6966 37.348 68.5478 38.3766 68.3354 39.3929C68.0711 40.562 67.8985 41.7501 67.8194 42.9461C67.7898 43.4011 67.7639 43.9801 67.775 44.8069C67.8064 46.4329 67.9299 48.0558 68.1449 49.6678C68.6406 53.2543 69.3694 55.0096 68.3299 56.5837C68.1046 56.9193 67.8296 57.2187 67.5142 57.4715H74.2599L74.9757 56.7576C75.4813 56.2804 76.1435 55.4468 76.9623 54.2568C77.8131 53.0062 78.5386 51.6748 79.1282 50.2819L81.3608 57.4715H90.3354L91.14 56.7576C92.3608 55.596 93.7597 53.4078 95.3369 50.1931C96.0767 48.6443 96.7093 46.6349 97.2346 44.165C97.7678 41.5796 98.03 38.9456 98.017 36.3058L91.4526 36.3132Z" fill="black"/>
</svg>
