<?xml version="1.0" standalone="no"?>
<!DOCTYPE svg PUBLIC "-//W3C//DTD SVG 20010904//EN"
 "http://www.w3.org/TR/2001/REC-SVG-20010904/DTD/svg10.dtd">
<svg version="1.0" xmlns="http://www.w3.org/2000/svg"
 width="306.000000pt" height="165.000000pt" viewBox="0 0 306.000000 165.000000"
 preserveAspectRatio="xMidYMid meet">

<g transform="translate(0.000000,165.000000) scale(0.100000,-0.100000)"
fill="#000000" stroke="none">
<path d="M1542 1633 c-17 -15 -968 -1469 -1002 -1533 -18 -33 11 -86 50 -94
18 -3 457 -6 976 -6 l944 0 10 26 c9 24 -32 99 -442 802 -249 428 -463 787
-475 800 -27 27 -35 27 -61 5z m352 -867 c165 -275 302 -513 304 -527 2 -14
-2 -30 -10 -35 -8 -6 -242 -8 -636 -6 -676 4 -652 2 -652 58 0 16 115 204 313
510 171 267 320 494 330 504 14 16 21 17 35 9 9 -6 152 -237 316 -513z"/>
<path d="M1535 1051 c-25 -11 -51 -40 -59 -66 -8 -28 30 -408 43 -434 11 -20
28 -26 61 -21 31 4 41 29 50 121 5 52 12 112 14 134 23 202 17 242 -45 264
-36 13 -37 13 -64 2z"/>
<path d="M1505 426 c-33 -34 -41 -71 -22 -110 41 -88 177 -58 177 39 0 80
-100 126 -155 71z"/>
</g>
</svg>
