<?xml version="1.0" standalone="no"?>
<!DOCTYPE svg PUBLIC "-//W3C//DTD SVG 20010904//EN"
 "http://www.w3.org/TR/2001/REC-SVG-20010904/DTD/svg10.dtd">
<svg version="1.0" xmlns="http://www.w3.org/2000/svg"
 width="416.000000pt" height="416.000000pt" viewBox="0 0 416.000000 416.000000"
 preserveAspectRatio="xMidYMid meet">

<g transform="translate(0.000000,416.000000) scale(0.100000,-0.100000)"
fill="#000000" stroke="none">
<path d="M1985 3270 c-50 -16 -137 -73 -166 -110 -43 -54 -1048 -1800 -1059
-1840 -17 -60 -12 -164 11 -224 26 -72 93 -145 166 -181 l58 -30 1085 0 1085
0 50 25 c74 36 148 114 173 183 26 69 29 174 7 237 -20 58 -1021 1792 -1062
1839 -17 21 -60 53 -95 71 -54 29 -74 34 -143 37 -44 1 -93 -2 -110 -7z m190
-129 c22 -10 52 -31 66 -47 40 -44 1036 -1776 1049 -1824 26 -98 -34 -213
-132 -254 -33 -14 -160 -16 -1080 -16 -992 0 -1045 1 -1084 19 -91 42 -148
154 -125 248 13 50 1006 1779 1050 1827 38 41 97 66 161 66 32 0 71 -8 95 -19z"/>
<path d="M2031 3027 c-16 -8 -68 -87 -152 -232 -70 -121 -299 -517 -508 -880
-420 -727 -411 -707 -352 -766 l30 -29 1036 2 1037 3 24 28 c51 60 67 28 -481
977 -361 625 -513 880 -532 892 -33 21 -68 23 -102 5z m146 -343 c44 -33 63
-73 63 -131 0 -26 -11 -214 -26 -418 -29 -416 -30 -420 -102 -445 -37 -13 -45
-12 -77 3 -21 10 -41 30 -50 49 -10 23 -23 146 -40 388 -29 413 -30 461 -10
500 16 32 68 75 100 83 40 11 108 -3 142 -29z m-6 -1148 c50 -34 72 -85 67
-151 -17 -200 -318 -188 -318 13 0 98 64 162 160 162 42 0 64 -6 91 -24z"/>
</g>
</svg>
