<svg width="16" height="16" viewBox="0 0 16 16" fill="none" xmlns="http://www.w3.org/2000/svg"><path d="M13.25 14c-1.356 0-2.703-.333-4.042-1A13.723 13.723 0 0 1 5.6 10.4 13.723 13.723 0 0 1 3 6.792c-.667-1.34-1-2.686-1-4.042 0-.214.071-.393.214-.536A.727.727 0 0 1 2.75 2h2.333c.152 0 .287.053.405.158a.728.728 0 0 1 .229.425l.45 2.1a1.2 1.2 0 0 1-.009.425.642.642 0 0 1-.175.325L4.317 7.117a13.838 13.838 0 0 0 2.091 2.7 11.564 11.564 0 0 0 2.625 1.95l1.584-1.634A.922.922 0 0 1 11 9.875a.77.77 0 0 1 .433-.025l1.984.433c.17.038.31.122.419.253A.7.7 0 0 1 14 11v2.25a.727.727 0 0 1-.214.536.727.727 0 0 1-.536.214zM3.817 6.2l1.35-1.367L4.783 3H3c0 .433.067.908.2 1.425.133.517.339 1.108.617 1.775zm6.15 6.05c.455.211.95.383 1.483.517.533.133 1.05.21 1.55.233v-1.783l-1.717-.35-1.316 1.383z"/></svg>