<svg width="21" height="20" viewBox="0 0 21 20" fill="none" xmlns="http://www.w3.org/2000/svg">
<path d="M10.0015 0.0390625C4.50146 0.0390625 0.00146484 4.52906 0.00146484 10.0591C0.00146484 15.0591 3.66146 19.2091 8.44146 19.9591V12.9591H5.90146V10.0591H8.44146V7.84906C8.44146 5.33906 9.93147 3.95906 12.2215 3.95906C13.3115 3.95906 14.4515 4.14906 14.4515 4.14906V6.61906H13.1915C11.9515 6.61906 11.5615 7.38906 11.5615 8.17906V10.0591H14.3415L13.8915 12.9591H11.5615V19.9591C13.9179 19.5869 16.0637 18.3846 17.6114 16.5691C19.1591 14.7537 20.0068 12.4447 20.0015 10.0591C20.0015 4.52906 15.5015 0.0390625 10.0015 0.0390625Z" fill="#545454"/>
</svg>
