<svg width="21" height="21" viewBox="0 0 21 21" fill="none" xmlns="http://www.w3.org/2000/svg">
<path d="M5.80147 0.00146484H14.2015C17.4015 0.00146484 20.0015 2.60146 20.0015 5.80147V14.2015C20.0015 15.7397 19.3904 17.215 18.3027 18.3027C17.215 19.3904 15.7397 20.0015 14.2015 20.0015H5.80147C2.60146 20.0015 0.00146484 17.4015 0.00146484 14.2015V5.80147C0.00146484 4.26321 0.612535 2.78796 1.70025 1.70025C2.78796 0.612535 4.26321 0.00146484 5.80147 0.00146484ZM5.60146 2.00146C4.64669 2.00146 3.73101 2.38075 3.05588 3.05588C2.38075 3.73101 2.00146 4.64669 2.00146 5.60146V14.4015C2.00146 16.3915 3.61146 18.0015 5.60146 18.0015H14.4015C15.3562 18.0015 16.2719 17.6222 16.9471 16.9471C17.6222 16.2719 18.0015 15.3562 18.0015 14.4015V5.60146C18.0015 3.61146 16.3915 2.00146 14.4015 2.00146H5.60146ZM15.2515 3.50146C15.583 3.50146 15.9009 3.63316 16.1353 3.86758C16.3698 4.102 16.5015 4.41994 16.5015 4.75146C16.5015 5.08299 16.3698 5.40093 16.1353 5.63535C15.9009 5.86977 15.583 6.00146 15.2515 6.00146C14.9199 6.00146 14.602 5.86977 14.3676 5.63535C14.1332 5.40093 14.0015 5.08299 14.0015 4.75146C14.0015 4.41994 14.1332 4.102 14.3676 3.86758C14.602 3.63316 14.9199 3.50146 15.2515 3.50146ZM10.0015 5.00146C11.3275 5.00146 12.5993 5.52825 13.537 6.46593C14.4747 7.40361 15.0015 8.67538 15.0015 10.0015C15.0015 11.3275 14.4747 12.5993 13.537 13.537C12.5993 14.4747 11.3275 15.0015 10.0015 15.0015C8.67538 15.0015 7.40361 14.4747 6.46593 13.537C5.52825 12.5993 5.00146 11.3275 5.00146 10.0015C5.00146 8.67538 5.52825 7.40361 6.46593 6.46593C7.40361 5.52825 8.67538 5.00146 10.0015 5.00146ZM10.0015 7.00146C9.20582 7.00146 8.44275 7.31753 7.88014 7.88014C7.31753 8.44275 7.00146 9.20582 7.00146 10.0015C7.00146 10.7971 7.31753 11.5602 7.88014 12.1228C8.44275 12.6854 9.20582 13.0015 10.0015 13.0015C10.7971 13.0015 11.5602 12.6854 12.1228 12.1228C12.6854 11.5602 13.0015 10.7971 13.0015 10.0015C13.0015 9.20582 12.6854 8.44275 12.1228 7.88014C11.5602 7.31753 10.7971 7.00146 10.0015 7.00146Z" fill="#545454"/>
</svg>
