
<svg width="102" height="24" viewBox="0 0 102 24" fill="none" xmlns="http://www.w3.org/2000/svg">
<path d="M12.0016 2.03906C6.50159 2.03906 2.00159 6.52906 2.00159 12.0591C2.00159 17.0591 5.66159 21.2091 10.4416 21.9591V14.9591H7.90159V12.0591H10.4416V9.84906C10.4416 7.33906 11.9316 5.95906 14.2216 5.95906C15.3116 5.95906 16.4516 6.14906 16.4516 6.14906V8.61906H15.1916C13.9516 8.61906 13.5616 9.38906 13.5616 10.1791V12.0591H16.3416L15.8916 14.9591H13.5616V21.9591C15.918 21.5869 18.0638 20.3846 19.6115 18.5691C21.1592 16.7537 22.0069 14.4447 22.0016 12.0591C22.0016 6.52906 17.5016 2.03906 12.0016 2.03906Z" fill="#545454"/>
<path d="M46.8016 2.00146H55.2016C58.4016 2.00146 61.0016 4.60146 61.0016 7.80147V16.2015C61.0016 17.7397 60.3905 19.215 59.3028 20.3027C58.2151 21.3904 56.7398 22.0015 55.2016 22.0015H46.8016C43.6016 22.0015 41.0016 19.4015 41.0016 16.2015V7.80147C41.0016 6.26321 41.6127 4.78796 42.7004 3.70025C43.7881 2.61253 45.2633 2.00146 46.8016 2.00146ZM46.6016 4.00146C45.6468 4.00146 44.7311 4.38075 44.056 5.05588C43.3809 5.73101 43.0016 6.64669 43.0016 7.60146V16.4015C43.0016 18.3915 44.6116 20.0015 46.6016 20.0015H55.4016C56.3564 20.0015 57.272 19.6222 57.9472 18.9471C58.6223 18.2719 59.0016 17.3562 59.0016 16.4015V7.60146C59.0016 5.61146 57.3916 4.00146 55.4016 4.00146H46.6016ZM56.2516 5.50146C56.5831 5.50146 56.9011 5.63316 57.1355 5.86758C57.3699 6.102 57.5016 6.41994 57.5016 6.75146C57.5016 7.08299 57.3699 7.40093 57.1355 7.63535C56.9011 7.86977 56.5831 8.00146 56.2516 8.00146C55.9201 8.00146 55.6021 7.86977 55.3677 7.63535C55.1333 7.40093 55.0016 7.08299 55.0016 6.75146C55.0016 6.41994 55.1333 6.102 55.3677 5.86758C55.6021 5.63316 55.9201 5.50146 56.2516 5.50146ZM51.0016 7.00146C52.3277 7.00146 53.5994 7.52825 54.5371 8.46593C55.4748 9.40361 56.0016 10.6754 56.0016 12.0015C56.0016 13.3275 55.4748 14.5993 54.5371 15.537C53.5994 16.4747 52.3277 17.0015 51.0016 17.0015C49.6755 17.0015 48.4037 16.4747 47.4661 15.537C46.5284 14.5993 46.0016 13.3275 46.0016 12.0015C46.0016 10.6754 46.5284 9.40361 47.4661 8.46593C48.4037 7.52825 49.6755 7.00146 51.0016 7.00146ZM51.0016 9.00146C50.2059 9.00146 49.4429 9.31753 48.8803 9.88014C48.3177 10.4428 48.0016 11.2058 48.0016 12.0015C48.0016 12.7971 48.3177 13.5602 48.8803 14.1228C49.4429 14.6854 50.2059 15.0015 51.0016 15.0015C51.7972 15.0015 52.5603 14.6854 53.1229 14.1228C53.6855 13.5602 54.0016 12.7971 54.0016 12.0015C54.0016 11.2058 53.6855 10.4428 53.1229 9.88014C52.5603 9.31753 51.7972 9.00146 51.0016 9.00146Z" fill="#545454"/>
<path d="M90.0016 2.00146C84.4816 2.00146 80.0016 6.48147 80.0016 12.0015C80.0016 17.5215 84.4816 22.0015 90.0016 22.0015C95.5216 22.0015 100.002 17.5215 100.002 12.0015C100.002 6.48147 95.5216 2.00146 90.0016 2.00146ZM94.6416 8.80147C94.4916 10.3815 93.8416 14.2215 93.5116 15.9915C93.3716 16.7415 93.0916 16.9915 92.8316 17.0215C92.2516 17.0715 91.8116 16.6415 91.2516 16.2715C90.3716 15.6915 89.8716 15.3315 89.0216 14.7715C88.0316 14.1215 88.6716 13.7615 89.2416 13.1815C89.3916 13.0315 91.9516 10.7015 92.0016 10.4915C92.0085 10.4597 92.0076 10.4266 91.9989 10.3953C91.9902 10.3639 91.9739 10.3351 91.9516 10.3115C91.8916 10.2615 91.8116 10.2815 91.7416 10.2915C91.6516 10.3115 90.2516 11.2415 87.5216 13.0815C87.1216 13.3515 86.7616 13.4915 86.4416 13.4815C86.0816 13.4715 85.4016 13.2815 84.8916 13.1115C84.2616 12.9115 83.7716 12.8015 83.8116 12.4515C83.8316 12.2715 84.0816 12.0915 84.5516 11.9015C87.4716 10.6315 89.4116 9.79147 90.3816 9.39147C93.1616 8.23147 93.7316 8.03147 94.1116 8.03147C94.1916 8.03147 94.3816 8.05147 94.5016 8.15147C94.6016 8.23147 94.6316 8.34147 94.6416 8.42147C94.6316 8.48147 94.6516 8.66147 94.6416 8.80147Z" fill="#545454"/>
</svg>
