<svg width="21" height="21" viewBox="0 0 21 21" fill="none" xmlns="http://www.w3.org/2000/svg">
<path d="M10.0015 0.00146484C4.48147 0.00146484 0.00146484 4.48147 0.00146484 10.0015C0.00146484 15.5215 4.48147 20.0015 10.0015 20.0015C15.5215 20.0015 20.0015 15.5215 20.0015 10.0015C20.0015 4.48147 15.5215 0.00146484 10.0015 0.00146484ZM14.6415 6.80147C14.4915 8.38147 13.8415 12.2215 13.5115 13.9915C13.3715 14.7415 13.0915 14.9915 12.8315 15.0215C12.2515 15.0715 11.8115 14.6415 11.2515 14.2715C10.3715 13.6915 9.87147 13.3315 9.02147 12.7715C8.03147 12.1215 8.67147 11.7615 9.24147 11.1815C9.39147 11.0315 11.9515 8.70147 12.0015 8.49147C12.0084 8.45966 12.0075 8.42664 11.9988 8.39527C11.9901 8.3639 11.9738 8.33513 11.9515 8.31147C11.8915 8.26147 11.8115 8.28147 11.7415 8.29147C11.6515 8.31147 10.2515 9.24147 7.52147 11.0815C7.12147 11.3515 6.76147 11.4915 6.44147 11.4815C6.08147 11.4715 5.40147 11.2815 4.89147 11.1115C4.26147 10.9115 3.77147 10.8015 3.81147 10.4515C3.83147 10.2715 4.08147 10.0915 4.55147 9.90147C7.47147 8.63147 9.41147 7.79147 10.3815 7.39147C13.1615 6.23147 13.7315 6.03147 14.1115 6.03147C14.1915 6.03147 14.3815 6.05147 14.5015 6.15147C14.6015 6.23147 14.6315 6.34147 14.6415 6.42147C14.6315 6.48147 14.6515 6.66147 14.6415 6.80147Z" fill="#545454"/>
</svg>
